Coordinates
version=1
nRows=22
nColumns=24
inDegrees=yes

Units are S.I. units (second, meters, Newtons, ...)
Angles are in degrees.

endheader
time	pelvis_tilt	pelvis_list	pelvis_rotation	pelvis_tx	pelvis_ty	pelvis_tz	hip_flexion_r	hip_adduction_r	hip_rotation_r	knee_angle_r	ankle_angle_r	subtalar_angle_r	mtp_angle_r	hip_flexion_l	hip_adduction_l	hip_rotation_l	knee_angle_l	ankle_angle_l	subtalar_angle_l	mtp_angle_l	lumbar_extension	lumbar_bending	lumbar_rotation
      1.47000000	     -2.02627869	     -2.49504993	     -1.26316310	      0.28645313	      1.01184156	     -0.04066055	     21.75139955	     -1.50617078	      1.37940132	    -63.97258753	      0.50347551	      0.00000000	      0.00000000	      9.74540714	     -0.29534044	      2.45330397	    -15.19721351	      8.21448175	      0.00000000	      0.00000000	    -11.99660824	      5.82193343	     -4.10723191
      1.48000000	     -1.99665372	     -2.69883906	     -1.24003562	      0.28582571	      1.01249647	     -0.04147761	     22.27824664	     -1.13921785	      1.62787977	    -63.09707592	      1.27902961	      0.00000000	      0.00000000	      8.97425134	     -0.48613331	      2.37404783	    -14.56109830	      8.21296926	      0.00000000	      0.00000000	    -12.02527701	      6.14512323	     -4.19084021
      1.49000000	     -2.00625716	     -2.67714406	     -1.12970617	      0.28500549	      1.01290762	     -0.04236948	     22.85245317	     -1.07751142	      1.82575748	    -62.07352175	      1.52540788	      0.00000000	      0.00000000	      8.51527163	     -0.40322558	      2.28690891	    -14.48834827	      8.37396682	      0.00000000	      0.00000000	    -12.01158542	      6.22787363	     -4.44022571
      1.50000000	     -2.06885842	     -2.86729406	     -1.08085187	      0.28425139	      1.01322758	     -0.04301675	     23.37552029	     -0.73334756	      2.08447679	    -60.83433585	      2.35724145	      0.00000000	      0.00000000	      7.89009265	     -0.57929677	      2.28754494	    -13.95108396	      8.63713031	      0.00000000	      0.00000000	    -11.95310656	      6.52992723	     -4.56373666
      1.51000000	     -2.02386078	     -3.01165596	     -1.05441448	      0.28343382	      1.01366603	     -0.04352821	     23.71000652	     -0.45928248	      2.34491280	    -59.32643674	      2.93763373	      0.00000000	      0.00000000	      7.27070694	     -0.71443173	      2.18847705	    -13.67265361	      8.73723365	      0.00000000	      0.00000000	    -12.03808894	      6.76229804	     -4.65973517
      1.52000000	     -2.06096134	     -2.93272159	     -0.99764767	      0.28250747	      1.01380233	     -0.04422708	     24.16122932	     -0.50829728	      2.55537004	    -57.76904419	      3.13524011	      0.00000000	      0.00000000	      6.87508455	     -0.58036753	      2.11566709	    -13.66395804	      8.89131499	      0.00000000	      0.00000000	    -12.02606946	      6.77751415	     -4.82587131
      1.53000000	     -1.91792473	     -3.27881550	     -1.03297874	      0.28178317	      1.01432100	     -0.04448288	     24.20269445	     -0.00752825	      2.85738043	    -55.78879646	      3.67934087	      0.00000000	      0.00000000	      6.02090315	     -0.94732889	      2.01618544	    -13.11783247	      9.08584897	      0.00000000	      0.00000000	    -12.23795160	      7.22514686	     -4.82343056
      1.54000000	     -1.97098944	     -3.15804859	     -1.00325296	      0.28086272	      1.01425666	     -0.04495051	     24.55856977	     -0.11724410	      3.07867274	    -53.89969997	      3.74751030	      0.00000000	      0.00000000	      5.62550705	     -0.77606561	      1.96284076	    -13.08621499	      9.28757709	      0.00000000	      0.00000000	    -12.21955216	      7.17431965	     -4.96362310
      1.55000000	     -1.81944876	     -3.44258678	     -1.05156718	      0.28018487	      1.01464983	     -0.04514990	     24.45232852	      0.24045786	      3.32650466	    -51.50917043	      3.63246671	      0.00000000	      0.00000000	      4.77454889	     -1.06874103	      1.92452618	    -12.58348197	      9.52253705	      0.00000000	      0.00000000	    -12.44734493	      7.55569594	     -4.92347064
      1.56000000	     -1.61328980	     -3.51521971	     -1.08795040	      0.27942670	      1.01495667	     -0.04531394	     24.29679049	      0.32106945	      3.52754170	    -49.08378469	      3.31554708	      0.00000000	      0.00000000	      3.99122566	     -1.13037948	      1.76010295	    -12.33234633	      9.66336737	      0.00000000	      0.00000000	    -12.74009888	      7.69479118	     -4.94211833
      1.57000000	     -1.56639670	     -3.51349641	     -1.12284288	      0.27868635	      1.01491137	     -0.04545031	     24.27125363	      0.29847468	      3.69279949	    -46.57550176	      2.95180198	      0.00000000	      0.00000000	      3.38436838	     -1.10698521	      1.70925158	    -12.09579897	      9.85958130	      0.00000000	      0.00000000	    -12.84571080	      7.75878230	     -4.98078307
      1.58000000	     -1.54411506	     -3.50119967	     -1.16360849	      0.27796847	      1.01475322	     -0.04551668	     24.20221554	      0.24286009	      3.81388465	    -43.91106705	      2.49649471	      0.00000000	      0.00000000	      2.82962155	     -1.07663695	      1.65852806	    -11.91744561	     10.08141843	      0.00000000	      0.00000000	    -12.91752138	      7.81173173	     -5.02592282
      1.59000000	     -1.69174676	     -3.24188524	     -1.19438191	      0.27720541	      1.01410410	     -0.04552061	     24.35828165	     -0.07816734	      3.95695686	    -41.35388371	      2.32117341	      0.00000000	      0.00000000	      2.52691790	     -0.78063958	      1.62695223	    -11.87617317	     10.36684316	      0.00000000	      0.00000000	    -12.78026613	      7.59147861	     -5.15088027
      1.60000000	     -1.79036802	     -3.17580836	     -1.25014435	      0.27648477	      1.01358246	     -0.04542487	     24.29385188	     -0.21239245	      4.01341397	    -38.43422028	      1.74857504	      0.00000000	      0.00000000	      2.12673368	     -0.70019522	      1.70015382	    -11.76258181	     10.62304957	      0.00000000	      0.00000000	    -12.71543578	      7.58581447	     -5.18879259
      1.61000000	     -1.68822616	     -3.47099740	     -1.26700482	      0.27578956	      1.01346795	     -0.04515494	     23.76596747	     -0.00751125	      3.84819809	    -35.01343794	      0.80235569	      0.00000000	      0.00000000	      1.51221299	     -1.02628616	      1.62943789	    -11.64647912	     10.87885592	      0.00000000	      0.00000000	    -12.91953746	      7.96750519	     -5.12607304
      1.62000000	     -1.76252354	     -3.43113105	     -1.31209207	      0.27511488	      1.01283038	     -0.04484199	     23.49313616	     -0.12687087	      3.78943264	    -31.75980152	      0.18548867	      0.00000000	      0.00000000	      1.12393528	     -0.98749088	      1.62694976	    -11.61777462	     11.19110363	      0.00000000	      0.00000000	    -12.89077148	      7.97888893	     -5.14292684
      1.63000000	     -1.94102778	     -3.27965928	     -1.37135300	      0.27443756	      1.01190902	     -0.04448277	     23.29615808	     -0.34777461	      3.78079322	    -28.45465188	     -0.37489169	      0.00000000	      0.00000000	      0.87273708	     -0.82742981	      1.72354768	    -11.64883595	     11.52337398	      0.00000000	      0.00000000	    -12.73593369	      7.87450430	     -5.18273884
      1.64000000	     -1.95526818	     -3.45714308	     -1.36913504	      0.27384612	      1.01125631	     -0.04395833	     22.68102667	     -0.25504191	      3.55089681	    -24.69452883	     -1.31177053	      0.00000000	      0.00000000	      0.47757505	     -1.04413450	      1.60224031	    -11.75176875	     11.98140851	      0.00000000	      0.00000000	    -12.79265166	      8.12295714	     -5.15690526
      1.65000000	     -2.20143441	     -3.21143558	     -1.41644137	      0.27320458	      1.01001942	     -0.04343453	     22.48047455	     -0.54797990	      3.49499528	    -21.29093650	     -2.07608777	      0.00000000	      0.00000000	      0.32444678	     -0.78873455	      1.72444937	    -11.82722150	     12.28291509	      0.00000000	      0.00000000	    -12.56201517	      7.90878481	     -5.21267101
      1.66000000	     -2.40460402	     -3.03312322	     -1.45128340	      0.27279799	      1.00877253	     -0.04290080	     22.11300501	     -0.77025503	      3.38029572	    -17.71319269	     -2.90801752	      0.00000000	      0.00000000	      0.13838673	     -0.60879460	      1.77153072	    -11.96580228	     12.69734840	      0.00000000	      0.00000000	    -12.35288565	      7.78319382	     -5.25561465
      1.67000000	     -2.42026152	     -3.11507766	     -1.42492223	      0.27252342	      1.00781532	     -0.04228677	     21.33108277	     -0.73835154	      3.06644551	    -13.76573588	     -4.28809179	      0.00000000	      0.00000000	     -0.23872906	     -0.72340522	      1.62471727	    -12.13669307	     13.17056280	      0.00000000	      0.00000000	    -12.37537785	      7.94532876	     -5.27018712
      1.68000000	     -2.65056575	     -2.67150172	     -1.48214373	      0.27224381	      1.00620329	     -0.04166082	     21.20196566	     -1.16436700	      3.00262494	    -10.80827087	     -4.69320138	      0.00000000	      0.00000000	     -0.41438757	     -0.25819389	      1.68176684	    -12.24340150	     13.57078120	      0.00000000	      0.00000000	    -12.11950576	      7.52345338	     -5.33474286
